<!--?xml version="1.0" standalone="no"?-->
              <svg id="sw-js-blob-svg" viewBox="0 0 100 100" xmlns="http://www.w3.org/2000/svg" version="1.1">
                    <defs> 
                        <linearGradient id="sw-gradient" x1="0" x2="1" y1="1" y2="0">
                            <stop id="stop1" stop-color="rgba(248, 55, 239.064, 1)" offset="0%"></stop>
                            <stop id="stop2" stop-color="rgba(251, 168, 31, 1)" offset="100%"></stop>
                        </linearGradient>
                    </defs>
                <path fill="url(#sw-gradient)" d="M28.2,-34C35.4,-27.6,39.2,-17.6,40.7,-7.5C42.1,2.7,41.1,12.9,36.4,21C31.7,29.1,23.3,34.9,13.8,38.6C4.4,42.3,-6.1,43.9,-15.6,41.1C-25.2,38.4,-33.8,31.5,-37.6,22.8C-41.3,14.1,-40.1,3.6,-36.4,-4.5C-32.7,-12.6,-26.4,-18.2,-19.9,-24.8C-13.4,-31.3,-6.7,-38.6,1.9,-40.9C10.5,-43.2,21,-40.4,28.2,-34Z" width="100%" height="100%" transform="translate(50 50)" stroke-width="0" style="transition: all 0.3s ease 0s;"></path>
              </svg>