<!--?xml version="1.0" standalone="no"?-->
              <svg id="sw-js-blob-svg" viewBox="0 0 100 100" xmlns="http://www.w3.org/2000/svg" version="1.1">
                    <defs> 
                        <linearGradient id="sw-gradient" x1="0" x2="1" y1="1" y2="0">
                            <stop id="stop1" stop-color="rgba(248, 55, 239.064, 1)" offset="0%"></stop>
                            <stop id="stop2" stop-color="rgba(251, 168, 31, 1)" offset="100%"></stop>
                        </linearGradient>
                    </defs>
                <path fill="url(#sw-gradient)" d="M22.5,-27.4C29.6,-20.9,36.1,-14.2,38.4,-6C40.7,2.1,38.8,11.7,34.3,20C29.8,28.4,22.6,35.4,14.5,37.2C6.4,39,-2.7,35.6,-11.7,32.3C-20.7,28.9,-29.8,25.7,-35.9,18.9C-42.1,12.1,-45.3,1.8,-42.1,-5.8C-38.9,-13.4,-29.2,-18.3,-21.1,-24.6C-13,-30.9,-6.5,-38.6,0.6,-39.3C7.7,-40.1,15.4,-33.8,22.5,-27.4Z" width="100%" height="100%" transform="translate(50 50)" stroke-width="0" style="transition: all 0.3s ease 0s;"></path>
              </svg>