<!--?xml version="1.0" standalone="no"?-->
              <svg id="sw-js-blob-svg" viewBox="0 0 100 100" xmlns="http://www.w3.org/2000/svg" version="1.1">
                    <defs> 
                        <linearGradient id="sw-gradient" x1="0" x2="1" y1="1" y2="0">
                            <stop id="stop1" stop-color="rgba(248, 55, 239.064, 1)" offset="0%"></stop>
                            <stop id="stop2" stop-color="rgba(251, 168, 31, 1)" offset="100%"></stop>
                        </linearGradient>
                    </defs>
                <path fill="url(#sw-gradient)" d="M24,-26C32.1,-21.8,40.5,-15.2,42.8,-6.9C45,1.5,41.2,11.5,35.6,20C30,28.4,22.7,35.2,14.3,37.6C5.9,40,-3.6,38,-11.5,34C-19.3,30.1,-25.6,24.2,-28.2,17.4C-30.9,10.6,-29.9,2.7,-29.7,-6.4C-29.5,-15.5,-30,-25.9,-25.2,-30.7C-20.3,-35.5,-10.2,-34.7,-1.1,-33.4C7.9,-32.1,15.9,-30.2,24,-26Z" width="100%" height="100%" transform="translate(50 50)" stroke-width="0" style="transition: all 0.3s ease 0s;"></path>
              </svg>