<?xml version="1.0" encoding="utf-8"?>
<!-- Generator: Adobe Illustrator 25.3.1, SVG Export Plug-In . SVG Version: 6.00 Build 0)  -->
<svg version="1.1" id="Layer_1" xmlns="http://www.w3.org/2000/svg" xmlns:xlink="http://www.w3.org/1999/xlink" x="0px" y="0px"
	 viewBox="0 0 162.93 83.76" style="enable-background:new 0 0 162.93 83.76;" xml:space="preserve">
<style type="text/css">
	.st0{fill:#00B4BE;}
	.st1{fill:url(#SVGID_1_);}
	.st2{fill:#FFFFFF;}
</style>
<polygon class="st0" points="0,16.05 45,24.05 31,77.05 "/>
<linearGradient id="SVGID_1_" gradientUnits="userSpaceOnUse" x1="18.0137" y1="29.5485" x2="77.0137" y2="29.5485" gradientTransform="matrix(1 1.546234e-03 -1.546234e-03 1 0.032 -0.0764)">
	<stop  offset="0.0883" style="stop-color:#0884B4"/>
	<stop  offset="0.9419" style="stop-color:#6AC4D0"/>
</linearGradient>
<polygon class="st1" points="18.05,0 77,28.09 27.95,59.02 "/>
<g>
	<path class="st2" d="M76.33,65.55c0,1.6-0.21,3.08-0.63,4.43c-0.42,1.36-1.04,2.52-1.85,3.5c-0.81,0.98-1.81,1.74-2.99,2.28
		s-2.53,0.81-4.05,0.81c-1.22,0-2.3-0.16-3.23-0.49s-1.63-0.64-2.09-0.94v8.46h-3.78V55.58c0.89-0.22,2.01-0.45,3.35-0.71
		c1.34-0.26,2.89-0.39,4.66-0.39c1.63,0,3.09,0.26,4.39,0.77c1.3,0.52,2.41,1.25,3.33,2.2c0.92,0.95,1.63,2.11,2.13,3.48
		C76.08,62.3,76.33,63.84,76.33,65.55z M72.39,65.55c0-2.47-0.61-4.36-1.83-5.69c-1.22-1.33-2.85-1.99-4.88-1.99
		c-1.14,0-2.03,0.04-2.66,0.12c-0.64,0.08-1.15,0.18-1.52,0.28V71.6c0.46,0.38,1.12,0.75,1.99,1.1c0.87,0.35,1.82,0.53,2.85,0.53
		c1.08,0,2.01-0.2,2.79-0.59s1.4-0.94,1.89-1.63c0.49-0.69,0.84-1.5,1.06-2.44C72.28,67.64,72.39,66.63,72.39,65.55z"/>
	<path class="st2" d="M99.51,65.5c0,1.68-0.24,3.2-0.73,4.55c-0.49,1.36-1.17,2.52-2.05,3.5c-0.88,0.98-1.93,1.73-3.15,2.26
		c-1.22,0.53-2.55,0.79-3.98,0.79c-1.44,0-2.76-0.26-3.99-0.79c-1.22-0.53-2.27-1.28-3.15-2.26c-0.88-0.98-1.57-2.14-2.05-3.5
		s-0.73-2.87-0.73-4.55c0-1.65,0.24-3.16,0.73-4.53c0.49-1.37,1.17-2.54,2.05-3.52c0.88-0.98,1.93-1.73,3.15-2.26
		c1.22-0.53,2.55-0.79,3.99-0.79c1.44,0,2.76,0.26,3.98,0.79c1.22,0.53,2.27,1.28,3.15,2.26c0.88,0.98,1.57,2.15,2.05,3.52
		C99.27,62.34,99.51,63.85,99.51,65.5z M95.57,65.5c0-2.38-0.54-4.28-1.61-5.67c-1.07-1.4-2.53-2.09-4.37-2.09
		c-1.84,0-3.3,0.7-4.37,2.09c-1.07,1.4-1.61,3.29-1.61,5.67c0,2.39,0.54,4.28,1.61,5.67c1.07,1.4,2.53,2.09,4.37,2.09
		c1.84,0,3.3-0.7,4.37-2.09C95.03,69.78,95.57,67.89,95.57,65.5z"/>
	<path class="st2" d="M104.02,55.54c0.87-0.22,2.02-0.45,3.46-0.69c1.44-0.24,3.09-0.37,4.96-0.37c1.68,0,3.08,0.24,4.19,0.71
		c1.11,0.47,2,1.14,2.66,1.99c0.66,0.85,1.13,1.88,1.4,3.07c0.27,1.19,0.41,2.51,0.41,3.94v11.87h-3.78V65.02
		c0-1.3-0.09-2.41-0.26-3.33c-0.18-0.92-0.47-1.67-0.88-2.24c-0.41-0.57-0.95-0.98-1.63-1.24c-0.68-0.26-1.52-0.39-2.52-0.39
		c-0.41,0-0.83,0.01-1.26,0.04c-0.43,0.03-0.85,0.06-1.24,0.1c-0.39,0.04-0.75,0.09-1.06,0.14c-0.31,0.05-0.54,0.09-0.67,0.12v17.85
		h-3.78V55.54z"/>
	<path class="st2" d="M130.09,54.93h8.01v3.17h-8.01v9.76c0,1.06,0.08,1.93,0.24,2.62c0.16,0.69,0.41,1.23,0.73,1.63
		c0.33,0.39,0.73,0.67,1.22,0.83c0.49,0.16,1.06,0.24,1.71,0.24c1.14,0,2.05-0.13,2.75-0.39c0.69-0.26,1.17-0.44,1.44-0.55
		l0.73,3.13c-0.38,0.19-1.04,0.43-1.99,0.71c-0.95,0.28-2.03,0.43-3.25,0.43c-1.44,0-2.62-0.18-3.56-0.55
		c-0.93-0.37-1.69-0.92-2.26-1.65c-0.57-0.73-0.97-1.63-1.2-2.7c-0.23-1.07-0.35-2.31-0.35-3.72V49.04l3.78-0.65V54.93z"/>
	<path class="st2" d="M140.5,65.55c0-1.87,0.27-3.5,0.81-4.9c0.54-1.4,1.26-2.55,2.16-3.48c0.89-0.92,1.92-1.61,3.09-2.07
		c1.17-0.46,2.36-0.69,3.58-0.69c2.85,0,5.03,0.89,6.55,2.66c1.52,1.78,2.28,4.48,2.28,8.11c0,0.16,0,0.37,0,0.63
		s-0.01,0.5-0.04,0.71h-14.48c0.16,2.2,0.8,3.86,1.91,5s2.85,1.71,5.21,1.71c1.33,0,2.45-0.11,3.35-0.34
		c0.91-0.23,1.59-0.45,2.05-0.67l0.53,3.17c-0.46,0.24-1.27,0.5-2.42,0.77s-2.46,0.41-3.92,0.41c-1.84,0-3.44-0.28-4.78-0.83
		s-2.45-1.32-3.31-2.3c-0.87-0.98-1.51-2.13-1.93-3.48C140.71,68.62,140.5,67.15,140.5,65.55z M155.01,63.47
		c0.03-1.71-0.4-3.11-1.28-4.21s-2.09-1.65-3.64-1.65c-0.87,0-1.63,0.17-2.3,0.51c-0.66,0.34-1.23,0.78-1.69,1.32
		s-0.82,1.17-1.08,1.87c-0.26,0.71-0.43,1.42-0.51,2.16H155.01z"/>
</g>
</svg>
