<?xml version="1.0" encoding="utf-8"?>
<!-- Generator: Adobe Illustrator 25.3.1, SVG Export Plug-In . SVG Version: 6.00 Build 0)  -->
<svg version="1.1" xmlns="http://www.w3.org/2000/svg" xmlns:xlink="http://www.w3.org/1999/xlink" x="0px" y="0px"
	 viewBox="0 0 345 345" style="enable-background:new 0 0 345 345;" xml:space="preserve">
<style type="text/css">
	.st0{display:none;}
	.st1{display:inline;fill:#F47B4E;stroke:#000000;stroke-width:3;stroke-miterlimit:10;}
	.st2{display:inline;fill:#FFC94B;stroke:#000000;stroke-width:3;stroke-miterlimit:10;}
	.st3{display:inline;fill:#298AA1;stroke:#000000;stroke-width:3;stroke-miterlimit:10;}
	.st4{display:inline;fill:none;stroke:#000000;stroke-miterlimit:10;}
	.st5{display:inline;fill:#09383E;stroke:#000000;stroke-width:3;stroke-miterlimit:10;}
	.st6{display:inline;fill:none;stroke:#000000;stroke-width:5;stroke-miterlimit:10;}
	.st7{display:inline;fill:#F77653;stroke:#000000;stroke-width:3;stroke-miterlimit:10;}
	.st8{display:inline;stroke:#000000;stroke-miterlimit:10;}
	.st9{display:inline;fill:#00352E;}
	.st10{display:inline;}
	.st11{display:inline;fill:none;stroke:#000000;stroke-width:3;stroke-miterlimit:10;}
	.st12{fill:none;stroke:#FF0033;stroke-miterlimit:10;}
	.st13{fill:#FFC94B;stroke:#000000;stroke-width:3;stroke-miterlimit:10;}
	.st14{fill:#FF86A1;stroke:#000000;stroke-width:4;stroke-miterlimit:10;}
	.st15{fill:none;stroke:#000000;stroke-miterlimit:10;}
	.st16{fill:#298AA1;stroke:#000000;stroke-width:3;stroke-miterlimit:10;}
	.st17{fill:#FFFFFF;stroke:#000000;stroke-width:3;stroke-miterlimit:10;}
	.st18{fill:#F47B4E;stroke:#000000;stroke-width:3;stroke-miterlimit:10;}
	.st19{stroke:#000000;stroke-width:3;stroke-miterlimit:10;}
</style>
<g id="Layer_2" class="st0">
	<path class="st1" d="M-19.44,295.76c0,0,6.38,7.75,11.85,3.92s6.2-7.84,4.38-10.03s-7.09-5.26-7.09-5.26L-19.44,295.76z"/>
	<path class="st2" d="M-34.36,260.75l24.58,24.16c0,0,1.82,11.49-9.66,10.85l-19.93-19.09l4.72-15"/>
	<path class="st3" d="M-204.25,290.16c0,0,2.88,18.73,18.34,16.55S-62.7,294.72-62.7,294.72s17.23,1.73,22.84-16.46
		s24.62-77.13,24.62-77.13s2.84-14.91-8.7-22.15"/>
	<path class="st3" d="M-198.77,295.76l131.56-15.59c0,0,13.68,2.46,19.42-15.59c5.74-18.05,25.71-81.5,25.71-81.5
		s4.65-6.29-13.95-4.65c-18.6,1.64-127.18,13.68-127.18,13.68s-9.85-0.82-13.95,11.49c-4.1,12.31-25.16,77.68-25.16,77.68
		S-208.62,294.12-198.77,295.76z"/>
	<polygon class="st1" points="-185.92,267.04 -52.45,252.27 -33.57,192.65 -38.77,186.36 -159.66,201.95 -168.69,210.7 	"/>
	<path class="st3" d="M-75.13,243.8l-72.39,7.6c-8.16,0.86-17.85-0.44-18.71-8.59l-0.12-1.16c-0.86-8.16,7.44-20.21,15.6-21.07
		l72.39-7.6c8.16-0.86,18.92,0.68,19.78,8.83l0.12,1.16C-57.61,231.13-66.97,242.94-75.13,243.8z"/>
	<polygon class="st3" points="-179.8,293.51 -173.75,308.21 -68.04,297.4 -71.79,280.72 	"/>
	<polygon class="st1" points="-177.79,298.39 -73.42,286.63 -70.99,291.5 -175.54,303.86 	"/>
	<polygon class="st4" points="-158.29,290.96 -152.14,306 -135.84,304.33 -141.62,288.99 	"/>
	<polygon class="st4" points="-115.63,286.63 -108.93,301.58 -88.25,299.47 -96.16,283.6 	"/>
	<polygon class="st1" points="-152.14,294.27 -145.3,292.59 -143.08,300.76 -149.41,301.58 	"/>
	<polygon class="st1" points="-107.97,288.99 -100.31,288.24 -96.75,295.24 -104.82,296.68 	"/>
	<polygon class="st3" points="-180.58,292.59 -166.41,270.74 -76.92,260.75 -72.99,280.86 	"/>
	<polygon class="st5" points="-127.66,224.1 -133.68,243.66 -97.16,241.2 -92.24,220.82 	"/>
	<line class="st6" x1="-140.79" y1="213.44" x2="-67.35" y2="204.96"/>
	<path class="st7" d="M-110.57,222.52c0,0,10.39,8.86,0,19.58l-23.1,1.56l6.02-19.56L-110.57,222.52z"/>
	<ellipse transform="matrix(0.5 -0.866 0.866 0.5 -277.7391 -9.7031)" class="st2" cx="-147.27" cy="235.68" rx="10.32" ry="7.66"/>
	<ellipse transform="matrix(0.5 -0.866 0.866 0.5 -238.2295 44.9074)" class="st8" cx="-80.22" cy="228.77" rx="10.32" ry="7.66"/>
	<path class="st2" d="M-80.22,237.5l-56.32-54.15l-14.09-25.16l25.98,14.5l52.67,51.83c0,0,2,9.13-8.24,13.66"/>
	<path class="st4" d="M-136.55,183.35c0,0,1.5-4.38,6.97-3.56l55.47,53.62"/>
	<path class="st4" d="M-124.65,172.68c0,0-6.43,1.64-4.92,7.11"/>
	<path class="st9" d="M-138.21,165.12c0,0,0.09,5.29-5.48,5.47l-6.94-12.4L-138.21,165.12z"/>
	<circle class="st10" cx="-151.59" cy="277.3" r="2.46"/>
	<circle class="st10" cx="-94.66" cy="270.6" r="2.46"/>
	<circle class="st10" cx="-89.96" cy="275.52" r="1.74"/>
	<circle class="st10" cx="-162.17" cy="283.91" r="1.74"/>
	<line class="st11" x1="-155.52" y1="238.02" x2="-151.46" y2="237.28"/>
	<line class="st11" x1="-152.19" y1="244.46" x2="-151.6" y2="241.6"/>
	<line class="st11" x1="-146.15" y1="244.16" x2="-146.88" y2="241.67"/>
	<line class="st11" x1="-141.36" y1="239.98" x2="-143.86" y2="238.85"/>
	<line class="st11" x1="-139.21" y1="235.99" x2="-141.8" y2="235.68"/>
	<line class="st11" x1="-139.84" y1="229.94" x2="-142.61" y2="232.04"/>
	<line class="st11" x1="-142.93" y1="226.85" x2="-144.69" y2="229.61"/>
	<line class="st11" x1="-148.54" y1="227.05" x2="-147.08" y2="230.99"/>
	<line class="st11" x1="-152.82" y1="231.14" x2="-149.97" y2="234.26"/>
	<g class="st10">
		<path d="M-114.74,222.47c0.81,1.23,1.33,2.39,1.8,3.65c0.44,1.25,0.74,2.55,0.86,3.86c0.14,1.31,0,2.64-0.31,3.88
			c-0.27,1.26-0.92,2.39-1.57,3.43c0.44-1.17,0.82-2.34,0.83-3.55c0.04-1.2-0.07-2.38-0.43-3.5c-0.34-1.12-0.82-2.19-1.42-3.18
			c-0.59-0.97-1.33-1.96-2.06-2.67L-114.74,222.47z"/>
	</g>
	<g class="st10">
		<path d="M-125.35,241.8c0.72-0.71,1.47-1.7,2.06-2.67c0.6-0.99,1.08-2.06,1.42-3.18c0.36-1.12,0.47-2.3,0.43-3.5
			c-0.01-1.21-0.4-2.38-0.83-3.55c0.65,1.04,1.3,2.17,1.57,3.43c0.31,1.24,0.45,2.57,0.31,3.88c-0.12,1.31-0.41,2.61-0.86,3.86
			c-0.46,1.27-0.98,2.42-1.8,3.65L-125.35,241.8z"/>
	</g>
	<line class="st4" x1="-37.19" y1="269.7" x2="-11.93" y2="293.34"/>
</g>
<g id="Layer_3" class="st0">
</g>
<g id="Layer_4">
	<polygon class="st12" points="98.66,62.89 194.04,0 338.5,131.68 249.08,200.01 	"/>
	<polygon class="st13" points="239.08,41.3 194.13,73.57 148.17,30.25 194.04,0 	"/>
	<polygon class="st14" points="194.13,73.57 147.49,107.4 98.66,62.89 148.17,30.25 	"/>
	<polygon class="st14" points="288.35,87.77 244.49,119.52 193.7,72.87 239.08,41.3 	"/>
	<polygon class="st14" points="244.49,119.52 198.89,154.25 147.49,107.4 193.7,72.87 	"/>
	<polygon class="st13" points="339.35,132.44 295.49,166 244.7,119.34 288.35,87.77 	"/>
	<polygon class="st14" points="295.49,166 249.88,200.73 198.49,153.88 244.7,119.34 	"/>
	<polygon class="st15" points="13.13,113.56 149.56,170.2 193.13,343.78 63.34,272.01 	"/>
	<polygon class="st14" points="69.31,186.02 53.64,130.38 13.13,113.56 30.09,167.07 	"/>
	<polygon class="st15" points="85.82,244.49 131.22,266.5 114.25,207.57 69.31,186.02 	"/>
	<polygon class="st15" points="98.66,148.18 114.25,207.57 164.62,230.18 149.56,170.2 	"/>
	<polygon class="st16" points="48.18,224.16 85.82,244.49 69.31,186.02 30.09,167.07 	"/>
	<polygon class="st15" points="145.9,317.66 131.22,266.5 179.79,290.65 193.13,343.78 	"/>
	<polygon class="st17" points="100.26,292.42 85.82,244.49 131.22,266.5 145.9,317.66 	"/>
	<polygon class="st13" points="48.18,224.16 85.82,244.49 100.26,292.42 63.34,272.01 	"/>
	<polygon class="st16" points="98.66,148.18 53.64,130.38 69.31,186.02 114.25,207.57 	"/>
	<polygon class="st18" points="164.62,230.18 179.79,290.65 131.22,266.5 114.25,207.57 	"/>
	<polygon class="st14" points="215.14,196.8 164.62,230.18 179.79,290.65 227.52,258.29 	"/>
	<polygon class="st13" points="193.13,343.78 240.13,311.22 227.52,258.29 179.79,290.65 	"/>
	<polygon class="st18" points="164.62,230.18 215.14,196.8 203.22,135.57 149.56,170.2 	"/>
	<polygon class="st18" points="53.64,130.38 100.26,95.68 62.89,81.46 13.13,113.56 	"/>
	<polygon class="st13" points="98.66,148.18 147.49,113.56 100.26,95.68 53.64,130.38 	"/>
	<polygon class="st16" points="149.56,168.98 203.22,135.57 147.49,113.56 98.66,148.18 	"/>
	<polygon class="st19" points="227.52,258.29 227.95,257.18 249.88,200.73 208.57,163.09 	"/>
	<polygon class="st19" points="159.41,118.27 91.73,92.43 98.66,62.89 	"/>
	<polygon class="st18" points="252.52,269.03 287.6,243.72 302.04,212.16 262.61,241.97 	"/>
	<polygon class="st15" points="235.77,237.06 277.28,207.57 295.49,166 249.08,200.01 	"/>
	<polygon class="st14" points="336.43,135.62 318.6,178.5 276.87,207.62 295.08,166.04 	"/>
	<polygon class="st17" points="262.61,241.97 277.28,207.57 318.6,179.15 302.04,212.16 	"/>
	<polygon class="st13" points="233.25,282.33 252.52,269.03 262.61,241.97 229.23,265.46 	"/>
	<polygon class="st13" points="277.28,207.57 235.37,238.09 227.95,257.18 229.23,265.46 262.61,241.97 	"/>
	<polygon class="st17" points="114.25,207.57 164.62,230.18 149.56,170.2 98.66,149.07 	"/>
	<polygon class="st16" points="131.22,266.5 132.11,266.95 179.79,290.65 193.13,343.78 145.9,317.66 	"/>
	<polygon class="st13" points="85.82,244.49 130.62,266.21 114.25,207.57 69.31,186.02 	"/>
	<polygon class="st17" points="277.28,207.57 295.49,166 249.88,200.73 235.37,238.09 	"/>
</g>
</svg>
